<?xml version="1.0" standalone="no"?>
<!DOCTYPE svg PUBLIC "-//W3C//DTD SVG 20010904//EN"
 "http://www.w3.org/TR/2001/REC-SVG-20010904/DTD/svg10.dtd">
<svg version="1.0" xmlns="http://www.w3.org/2000/svg"
 width="14512.000000pt" height="6882.000000pt" viewBox="0 0 14512.000000 6882.000000"
 preserveAspectRatio="xMidYMid meet">

<g transform="translate(0.000000,6882.000000) scale(0.100000,-0.100000)"
fill="#000000" stroke="none">
<path d="M69730 61310 c0 -5 -7 -10 -16 -10 -8 0 -13 -4 -10 -9 7 -11 -31 -17
-204 -31 -74 -6 -178 -20 -230 -31 -52 -10 -131 -23 -175 -29 -44 -6 -102 -17
-128 -26 -26 -9 -85 -24 -130 -34 -130 -29 -207 -51 -275 -76 -34 -13 -72 -24
-85 -24 -12 0 -44 -11 -72 -23 -27 -13 -72 -29 -100 -36 -27 -7 -55 -17 -62
-23 -6 -5 -43 -21 -80 -35 -37 -14 -88 -33 -113 -42 -50 -19 -464 -224 -550
-273 -30 -17 -75 -42 -100 -55 -25 -14 -52 -30 -60 -37 -8 -7 -26 -18 -40 -24
-14 -7 -50 -28 -80 -47 -30 -18 -73 -43 -95 -54 -22 -11 -85 -47 -140 -80 -55
-33 -142 -84 -193 -113 -51 -29 -110 -63 -130 -74 -32 -19 -111 -64 -287 -163
-22 -13 -47 -28 -55 -35 -8 -6 -31 -20 -50 -29 -19 -10 -53 -28 -75 -41 -22
-13 -69 -40 -105 -61 -102 -59 -121 -70 -190 -111 -36 -21 -77 -45 -92 -54
-15 -8 -53 -30 -85 -49 -32 -18 -76 -43 -98 -56 -22 -12 -85 -48 -140 -80
-167 -97 -178 -104 -225 -130 -25 -14 -67 -38 -95 -55 -27 -16 -70 -41 -95
-55 -25 -14 -67 -39 -95 -55 -27 -16 -68 -38 -90 -50 -22 -12 -60 -34 -85 -51
-25 -16 -68 -40 -97 -53 -28 -14 -54 -30 -57 -35 -4 -6 -26 -20 -49 -31 -44
-22 -104 -56 -184 -104 -26 -16 -66 -39 -88 -51 -67 -38 -324 -186 -518 -299
-48 -28 -107 -62 -131 -76 -24 -14 -66 -38 -94 -55 -53 -31 -211 -122 -287
-165 -25 -14 -84 -48 -132 -76 -49 -28 -137 -79 -198 -114 -60 -35 -149 -86
-198 -114 -48 -28 -107 -62 -132 -76 -139 -79 -236 -135 -285 -165 -30 -19
-73 -44 -95 -55 -22 -11 -62 -34 -90 -51 -27 -18 -70 -43 -95 -57 -82 -45
-115 -64 -161 -90 -65 -38 -183 -108 -222 -132 -17 -11 -50 -29 -72 -40 -22
-11 -65 -36 -95 -55 -30 -19 -73 -44 -95 -55 -22 -12 -61 -33 -87 -48 -26 -15
-90 -51 -142 -80 -53 -29 -98 -57 -101 -62 -3 -5 -25 -19 -48 -30 -23 -11 -63
-33 -88 -48 -53 -31 -125 -73 -184 -106 -22 -13 -84 -49 -138 -80 -162 -93
-281 -162 -302 -173 -30 -18 -228 -133 -245 -144 -8 -5 -35 -20 -60 -34 -25
-14 -70 -40 -101 -57 -63 -37 -205 -119 -277 -160 -113 -65 -147 -84 -187
-108 -24 -14 -66 -38 -95 -55 -29 -16 -71 -41 -95 -55 -24 -14 -66 -38 -95
-55 -29 -16 -72 -41 -95 -55 -24 -14 -86 -49 -137 -78 -51 -30 -138 -80 -193
-112 -55 -32 -116 -67 -135 -78 -19 -10 -60 -34 -90 -52 -54 -32 -92 -54 -187
-106 -27 -14 -54 -31 -61 -36 -7 -6 -25 -18 -41 -27 -16 -9 -51 -29 -78 -44
-99 -58 -169 -97 -198 -112 -16 -9 -55 -31 -85 -50 -30 -18 -111 -65 -180
-104 -69 -39 -154 -89 -190 -111 -36 -22 -83 -49 -105 -60 -48 -24 -93 -50
-132 -76 -15 -10 -44 -27 -63 -37 -19 -9 -57 -31 -85 -47 -27 -16 -70 -41 -95
-55 -25 -15 -67 -39 -95 -55 -27 -17 -70 -41 -95 -55 -25 -14 -63 -37 -85 -50
-22 -13 -63 -36 -92 -49 -28 -14 -54 -29 -57 -35 -4 -6 -66 -43 -138 -83 -72
-40 -151 -85 -177 -100 -25 -15 -68 -39 -95 -55 -26 -15 -67 -39 -91 -53 -24
-14 -66 -38 -95 -55 -29 -16 -73 -42 -99 -57 -25 -15 -62 -35 -81 -45 -19 -10
-48 -27 -63 -37 -16 -11 -41 -26 -57 -35 -32 -18 -102 -58 -175 -101 -27 -16
-63 -36 -80 -45 -16 -8 -59 -33 -95 -54 -36 -22 -123 -73 -195 -114 -71 -40
-173 -99 -225 -129 -52 -30 -129 -74 -170 -97 -41 -24 -93 -55 -115 -69 -22
-14 -56 -35 -75 -47 -96 -59 -283 -187 -326 -223 -18 -15 -51 -40 -75 -57 -49
-34 -213 -170 -278 -229 -86 -79 -417 -413 -478 -482 -234 -268 -446 -568
-628 -894 -14 -25 -29 -52 -34 -60 -5 -8 -31 -58 -57 -110 -64 -129 -72 -146
-101 -210 -14 -30 -36 -76 -49 -103 -13 -26 -24 -53 -24 -59 0 -7 -11 -35 -24
-63 -23 -48 -32 -73 -78 -210 -11 -33 -28 -80 -37 -105 -33 -84 -70 -205 -80
-262 -5 -31 -17 -73 -26 -94 -8 -21 -22 -76 -29 -123 -8 -47 -24 -122 -35
-165 -12 -44 -21 -94 -21 -110 0 -17 -9 -76 -20 -131 -52 -255 -50 93 -49
-8120 0 -8178 -3 -7827 48 -8125 41 -241 95 -500 109 -526 6 -11 16 -52 23
-90 6 -38 18 -81 25 -96 8 -15 21 -53 29 -85 8 -32 31 -103 50 -158 20 -55 45
-125 56 -154 11 -30 25 -64 33 -75 7 -12 16 -34 20 -50 4 -16 29 -76 57 -133
27 -57 49 -107 49 -111 1 -22 205 -400 264 -488 11 -16 29 -45 41 -64 19 -31
109 -167 185 -280 41 -62 261 -335 354 -440 63 -71 363 -368 425 -420 35 -30
88 -75 116 -100 155 -132 378 -296 555 -405 19 -12 53 -33 75 -47 74 -47 275
-164 335 -195 19 -10 69 -38 110 -63 41 -24 87 -51 102 -60 46 -26 129 -74
173 -100 24 -14 65 -37 91 -53 27 -15 72 -41 99 -57 28 -16 91 -52 140 -80 50
-28 133 -76 185 -107 52 -30 113 -65 135 -77 22 -13 69 -40 105 -62 95 -57
120 -71 167 -94 23 -11 45 -24 47 -29 3 -5 29 -21 58 -35 80 -41 118 -63 136
-78 9 -8 33 -22 52 -32 19 -9 58 -30 85 -46 28 -16 72 -42 99 -57 26 -15 68
-39 91 -53 24 -14 86 -49 137 -78 51 -29 122 -71 158 -93 36 -21 79 -45 95
-54 17 -8 53 -28 80 -45 28 -16 70 -42 95 -56 25 -14 68 -38 95 -54 28 -17 70
-41 95 -55 91 -52 141 -81 197 -115 94 -56 116 -68 160 -90 23 -11 45 -24 47
-29 3 -5 25 -19 48 -31 24 -12 66 -35 93 -50 28 -16 70 -41 95 -55 25 -14 68
-38 95 -55 28 -16 70 -40 95 -54 25 -14 70 -41 101 -58 63 -37 205 -119 277
-160 26 -15 69 -40 96 -55 26 -15 68 -39 92 -53 25 -14 75 -43 112 -65 37 -23
78 -46 92 -53 14 -7 50 -28 80 -47 30 -19 71 -42 90 -53 19 -10 60 -34 90 -52
30 -18 74 -43 98 -56 23 -13 61 -35 85 -48 23 -13 65 -37 92 -54 28 -17 95
-56 150 -87 55 -30 141 -80 190 -110 50 -30 108 -64 130 -75 22 -11 63 -33 90
-50 28 -16 70 -41 95 -55 25 -14 70 -41 100 -60 30 -18 73 -43 95 -54 22 -12
85 -48 140 -81 55 -33 114 -66 130 -75 17 -8 59 -33 95 -54 36 -22 126 -74
200 -116 74 -42 180 -103 235 -136 55 -32 119 -69 143 -80 23 -12 45 -25 48
-30 2 -5 24 -18 47 -29 23 -11 60 -32 82 -45 22 -13 62 -37 89 -52 26 -15 67
-39 91 -53 24 -14 66 -38 95 -55 29 -16 73 -42 99 -57 25 -15 64 -37 86 -48
22 -12 65 -36 95 -55 30 -18 116 -68 190 -110 74 -42 160 -92 190 -110 30 -19
74 -44 97 -57 68 -37 220 -124 328 -189 55 -32 119 -68 141 -78 23 -11 45 -24
49 -30 3 -6 21 -18 38 -27 31 -14 50 -25 184 -103 32 -18 76 -43 98 -56 39
-21 145 -83 328 -189 97 -57 160 -93 227 -131 25 -14 68 -38 95 -55 28 -16 72
-41 99 -57 26 -15 69 -40 95 -55 25 -15 62 -35 81 -45 19 -9 42 -23 51 -30 8
-7 33 -23 56 -35 22 -13 84 -48 137 -78 53 -30 117 -66 141 -80 24 -14 66 -38
92 -54 26 -16 66 -39 88 -51 75 -42 220 -126 285 -165 36 -22 83 -49 105 -60
43 -23 70 -38 158 -90 56 -34 106 -63 197 -115 25 -14 68 -38 95 -55 28 -16
70 -40 95 -55 25 -14 68 -39 95 -55 28 -17 66 -37 85 -46 19 -9 42 -22 50 -29
8 -7 34 -24 57 -37 124 -68 210 -118 318 -181 124 -74 172 -101 240 -136 22
-12 60 -35 85 -51 25 -17 61 -38 80 -47 19 -10 49 -28 67 -40 17 -13 34 -23
38 -23 3 0 41 -21 83 -47 70 -42 98 -58 202 -115 19 -10 64 -37 100 -59 36
-21 72 -42 80 -45 25 -9 154 -79 184 -100 11 -8 27 -14 36 -14 8 0 35 -11 60
-24 25 -13 56 -27 70 -31 14 -4 37 -16 51 -26 14 -10 38 -21 55 -25 16 -4 50
-17 76 -30 26 -13 53 -24 61 -24 7 0 31 -9 52 -20 22 -11 65 -27 95 -35 30 -8
73 -24 95 -35 21 -11 50 -20 62 -20 13 0 50 -11 83 -25 33 -14 69 -25 80 -25
12 0 54 -11 93 -24 40 -13 90 -27 112 -31 22 -4 74 -15 115 -25 41 -11 122
-26 180 -35 58 -9 119 -21 135 -26 17 -5 131 -19 254 -29 123 -11 229 -24 235
-30 5 -5 6 -10 2 -10 -5 0 -3 -7 4 -15 18 -21 661 -23 679 -2 6 8 8 17 5 20
-12 12 48 27 95 26 62 -2 357 28 401 41 19 6 78 17 130 24 52 7 133 23 180 35
47 11 113 28 148 36 150 36 191 48 250 71 34 13 72 24 83 24 12 0 47 11 78 23
55 24 92 37 224 83 37 13 78 30 90 39 12 8 28 15 37 15 17 0 50 15 310 145
184 92 225 114 343 182 27 15 62 35 77 44 16 9 41 24 57 35 15 10 44 27 63 37
19 10 56 30 81 45 26 15 69 40 95 55 27 16 67 39 89 51 151 88 245 142 280
161 22 12 74 42 115 67 41 25 105 63 143 84 37 21 89 51 115 66 26 15 63 35
82 45 19 10 48 28 63 40 16 13 34 23 40 23 7 1 44 21 82 46 39 24 88 53 110
65 22 11 61 32 86 47 26 15 71 41 100 58 30 17 99 57 154 89 246 143 279 162
411 238 27 15 56 31 64 37 52 32 182 107 220 127 52 27 115 63 197 113 87 51
114 67 153 87 19 10 49 28 67 41 17 12 35 22 40 22 4 1 40 21 78 46 39 24 88
53 110 65 22 11 63 33 90 49 28 16 72 42 99 57 26 15 68 39 91 53 24 14 87 49
139 78 53 29 98 57 101 62 3 5 25 18 48 30 23 11 65 33 92 50 28 16 68 39 90
50 22 11 63 34 90 52 61 38 224 132 285 165 25 13 68 38 95 55 28 17 67 40 87
52 20 12 79 45 130 74 51 29 143 82 203 117 101 59 209 122 319 185 83 47 148
85 191 110 24 14 65 38 91 53 27 15 72 41 99 57 28 16 61 34 75 41 14 7 38 22
54 33 17 11 44 27 60 36 17 9 76 43 131 75 55 32 118 68 140 80 22 13 66 38
98 56 32 19 71 41 85 49 15 8 53 31 85 50 85 51 168 98 204 115 17 8 34 19 37
24 3 4 29 20 58 35 29 14 73 40 98 56 25 16 63 38 85 50 22 12 61 33 86 48 26
15 71 41 100 58 30 17 70 40 89 51 19 11 80 46 135 78 55 32 125 73 155 91 30
19 73 43 95 54 22 12 61 33 86 48 26 15 69 40 95 55 27 16 72 41 99 57 28 17
70 41 95 55 91 52 141 81 197 115 86 51 114 67 153 87 19 10 89 50 155 89 107
63 155 91 247 144 14 8 50 29 78 45 29 17 72 41 96 55 24 14 86 50 139 80 53
30 114 65 137 77 22 12 48 28 57 35 9 8 32 22 51 31 19 10 56 30 81 45 64 37
145 84 177 102 15 9 61 36 102 60 41 24 92 53 112 65 21 11 77 43 125 71 49
28 133 77 188 109 55 32 144 83 198 114 53 31 114 66 135 78 44 26 106 62 183
106 98 56 221 127 324 188 55 32 114 65 130 74 17 8 59 33 95 54 36 22 107 64
158 93 51 29 113 64 137 78 57 33 129 75 187 108 26 15 74 42 105 61 80 48
131 76 179 99 23 11 45 25 48 31 4 6 26 20 49 31 69 34 101 52 118 66 8 8 38
26 65 40 59 32 133 73 264 149 45 27 105 61 194 112 103 59 137 79 193 112 32
18 74 42 94 52 19 10 41 25 49 33 7 9 17 16 22 16 12 0 238 149 338 222 104
77 264 206 368 299 54 47 110 96 125 110 148 126 434 445 602 669 43 58 90
121 105 140 50 67 158 236 233 365 41 72 86 148 100 170 13 22 28 51 32 65 4
14 16 37 27 52 10 15 24 42 30 60 6 18 19 44 30 57 10 13 18 29 18 35 0 6 10
29 21 51 12 22 30 64 40 94 11 30 23 59 29 66 6 7 19 36 29 66 11 30 31 86 46
124 15 39 36 97 47 130 11 33 29 81 39 107 10 26 19 54 19 62 0 9 14 56 30
106 17 50 30 102 30 115 0 14 9 53 21 87 11 35 27 103 35 153 8 49 21 112 29
140 8 27 19 96 25 152 5 57 16 135 25 175 8 40 19 152 25 248 14 241 14 15189
0 15430 -6 96 -17 208 -25 248 -9 40 -20 118 -25 175 -6 56 -19 138 -30 182
-11 44 -24 105 -29 135 -18 107 -83 351 -127 480 -9 25 -24 72 -34 105 -24 77
-65 192 -79 219 -16 33 -61 146 -79 196 -8 25 -24 57 -34 72 -10 14 -18 29
-18 33 0 14 -71 166 -107 228 -20 34 -47 82 -59 107 -13 25 -37 68 -54 95 -17
28 -41 70 -55 95 -67 120 -270 410 -409 583 -149 186 -519 566 -686 704 -71
59 -350 273 -397 304 -266 177 -276 184 -348 225 -27 16 -63 36 -80 46 -16 9
-49 26 -72 38 -23 11 -45 25 -49 31 -3 6 -25 19 -48 30 -22 11 -66 35 -96 54
-30 19 -73 44 -95 55 -22 12 -61 33 -86 48 -113 65 -216 125 -316 181 -43 24
-89 52 -102 63 -14 10 -43 28 -65 39 -23 10 -62 32 -87 47 -61 36 -210 122
-257 148 -20 11 -63 36 -95 55 -31 19 -74 43 -95 54 -20 11 -63 36 -95 55 -32
19 -78 46 -102 60 -73 41 -233 133 -340 195 -285 166 -295 172 -459 263 -53
29 -98 57 -101 62 -3 5 -25 19 -48 30 -23 11 -64 33 -92 50 -27 16 -66 36 -85
45 -19 10 -42 23 -51 31 -8 7 -33 24 -56 36 -22 13 -84 48 -137 78 -53 30
-117 66 -141 80 -24 14 -70 40 -102 59 -32 19 -71 42 -88 51 -16 9 -52 30 -78
46 -78 47 -139 82 -184 104 -23 11 -45 24 -47 29 -3 5 -29 20 -58 35 -29 14
-73 40 -98 56 -25 16 -63 38 -85 50 -22 12 -62 34 -90 50 -27 17 -66 38 -85
48 -19 9 -48 26 -63 36 -16 11 -41 26 -57 35 -55 31 -126 72 -175 101 -27 17
-65 37 -84 46 -19 9 -49 27 -66 40 -18 13 -35 24 -40 24 -7 0 -165 91 -225
129 -24 15 -38 24 -146 84 -27 15 -56 31 -64 37 -19 12 -185 109 -225 132 -16
9 -49 26 -72 38 -23 11 -45 24 -47 29 -3 5 -25 18 -48 30 -24 12 -65 35 -93
51 -27 16 -70 41 -95 55 -25 14 -67 38 -95 55 -27 16 -70 40 -95 55 -25 14
-66 38 -92 53 -26 15 -89 51 -141 80 -52 28 -100 59 -106 66 -7 8 -26 18 -42
21 -16 4 -31 11 -35 16 -3 5 -28 22 -56 37 -66 36 -125 69 -195 112 -32 19
-75 44 -95 55 -20 11 -58 33 -85 48 -26 15 -69 40 -95 55 -26 15 -86 50 -133
77 -47 28 -111 65 -143 82 -129 73 -151 86 -247 144 -55 32 -113 66 -130 75
-16 8 -55 30 -85 49 -30 19 -73 44 -95 55 -22 11 -62 33 -90 50 -27 16 -70 41
-95 55 -25 14 -70 41 -100 60 -30 18 -73 43 -95 54 -22 11 -62 34 -90 50 -27
17 -70 42 -95 56 -25 15 -63 37 -85 50 -22 14 -65 38 -95 55 -30 17 -76 43
-101 58 -25 15 -90 52 -143 82 -53 30 -114 65 -134 77 -20 12 -57 34 -82 48
-25 14 -67 38 -95 55 -27 16 -75 43 -105 60 -30 17 -73 41 -95 55 -22 13 -62
36 -89 52 -26 15 -69 40 -95 55 -25 15 -62 35 -81 45 -19 10 -61 34 -93 53
-31 19 -79 47 -105 62 -58 33 -130 75 -187 108 -24 14 -86 49 -137 78 -51 29
-118 69 -148 87 -30 19 -71 43 -90 53 -73 40 -239 136 -325 188 -49 29 -106
62 -125 71 -19 10 -69 38 -110 63 -41 24 -87 51 -102 60 -15 8 -53 30 -85 49
-32 18 -76 43 -98 56 -39 21 -145 83 -328 189 -48 28 -109 63 -135 78 -106 61
-146 84 -187 108 -24 14 -66 39 -95 55 -29 17 -73 42 -99 57 -25 15 -57 33
-71 39 -14 7 -38 22 -54 33 -16 11 -46 29 -67 40 -21 12 -81 46 -134 76 -52
30 -108 62 -123 70 -15 9 -56 33 -92 54 -36 22 -83 49 -105 62 -22 12 -82 46
-133 75 -51 30 -123 71 -160 93 -118 67 -390 204 -421 211 -16 3 -35 13 -42
21 -6 7 -32 20 -58 28 -26 7 -64 23 -86 35 -22 11 -47 21 -56 21 -9 0 -36 11
-60 23 -24 13 -62 27 -84 31 -21 4 -55 16 -75 26 -20 10 -54 22 -75 26 -22 4
-62 18 -90 30 -27 13 -62 24 -76 24 -14 0 -57 11 -96 24 -38 13 -90 27 -114
31 -24 3 -87 17 -139 30 -52 13 -126 28 -165 34 -38 6 -90 15 -115 21 -25 6
-131 19 -237 29 -140 13 -195 22 -207 33 -8 9 -12 18 -9 22 4 3 -174 6 -395 6
-261 0 -402 -3 -402 -10z m793 -1291 c77 -6 151 -15 165 -20 14 -6 75 -16 135
-24 60 -8 139 -23 176 -34 36 -10 84 -22 106 -25 22 -4 63 -15 90 -25 28 -11
77 -26 110 -34 33 -8 98 -29 145 -46 47 -18 111 -40 144 -51 32 -10 66 -25 75
-34 9 -8 30 -18 46 -22 17 -3 50 -17 75 -30 25 -13 65 -32 90 -44 55 -24 307
-162 459 -252 25 -15 66 -39 91 -53 25 -14 68 -39 95 -55 28 -17 72 -42 99
-57 26 -16 67 -39 91 -53 24 -14 65 -38 91 -53 27 -15 72 -41 99 -57 28 -16
68 -38 90 -49 22 -12 68 -38 101 -60 34 -21 75 -45 90 -53 29 -16 106 -60 192
-111 26 -15 61 -34 79 -42 17 -8 35 -20 38 -26 4 -6 26 -20 49 -31 48 -23 99
-51 179 -99 31 -19 79 -46 105 -61 26 -15 69 -40 96 -55 26 -15 68 -39 92 -53
45 -26 141 -81 319 -185 88 -51 180 -104 339 -195 24 -14 63 -36 86 -50 23
-14 65 -38 95 -55 76 -43 144 -82 187 -108 21 -12 72 -42 115 -66 43 -24 112
-64 153 -89 41 -25 94 -56 117 -69 24 -12 62 -34 86 -47 23 -12 73 -42 111
-65 37 -22 70 -41 73 -41 2 0 43 -24 91 -52 99 -60 133 -80 182 -105 19 -10
48 -27 63 -37 16 -11 41 -26 57 -35 29 -16 86 -49 172 -99 26 -15 90 -52 143
-82 195 -112 246 -141 326 -188 25 -15 86 -49 135 -76 49 -27 114 -65 144 -85
30 -19 75 -46 100 -59 25 -13 63 -34 85 -47 22 -13 60 -36 85 -50 25 -14 68
-38 95 -55 28 -16 70 -40 95 -55 25 -14 68 -38 95 -55 28 -16 70 -41 95 -55
25 -14 68 -39 95 -56 28 -16 68 -38 90 -49 22 -11 69 -38 105 -60 36 -22 121
-71 190 -110 69 -39 148 -85 175 -102 54 -33 114 -68 185 -105 25 -13 70 -40
100 -58 30 -19 66 -40 80 -47 14 -6 32 -17 40 -24 8 -7 36 -24 63 -38 92 -51
133 -74 187 -106 30 -18 71 -42 90 -52 19 -11 80 -46 135 -78 55 -32 142 -82
193 -112 145 -83 184 -105 232 -133 25 -15 68 -40 95 -55 28 -16 72 -42 98
-57 27 -15 65 -37 85 -48 20 -11 63 -36 95 -55 55 -33 81 -49 193 -113 27 -15
70 -40 95 -55 26 -15 90 -52 143 -82 54 -30 112 -64 131 -75 36 -22 129 -75
190 -110 90 -51 233 -134 285 -165 30 -18 71 -42 90 -52 19 -11 56 -32 81 -46
100 -57 153 -88 198 -114 25 -15 65 -37 88 -48 23 -11 45 -25 48 -30 3 -5 48
-33 101 -62 52 -29 116 -65 142 -80 26 -15 63 -35 82 -44 19 -9 42 -22 50 -29
14 -12 46 -32 135 -80 132 -73 213 -121 234 -137 14 -10 43 -28 65 -39 23 -10
62 -32 87 -47 63 -37 210 -121 267 -153 26 -14 70 -40 97 -57 44 -27 149 -88
280 -162 25 -14 84 -48 132 -76 49 -28 135 -78 193 -111 58 -33 148 -86 200
-116 52 -31 113 -66 135 -77 22 -11 65 -36 95 -55 30 -19 66 -40 80 -47 14 -6
38 -21 54 -32 17 -11 46 -29 65 -39 20 -11 56 -30 81 -43 25 -14 68 -39 95
-56 28 -17 68 -41 90 -53 22 -12 84 -48 137 -79 152 -87 289 -166 333 -191 22
-12 62 -35 88 -51 26 -16 68 -40 92 -54 36 -21 140 -90 240 -160 66 -46 225
-175 310 -249 16 -14 95 -91 175 -171 258 -256 466 -525 656 -850 61 -103 184
-351 184 -371 0 -8 12 -32 25 -54 14 -22 25 -46 25 -54 0 -8 9 -33 19 -55 40
-84 141 -388 141 -424 0 -12 11 -56 24 -99 13 -43 30 -112 36 -153 6 -41 18
-100 25 -130 8 -30 22 -143 32 -250 17 -185 18 -591 18 -7745 0 -7158 -1
-7560 -18 -7745 -10 -107 -26 -229 -37 -270 -10 -41 -22 -102 -26 -135 -4 -33
-17 -93 -30 -133 -13 -40 -24 -80 -24 -90 0 -20 -54 -199 -80 -262 -10 -25
-25 -65 -33 -90 -33 -98 -65 -179 -81 -201 -9 -13 -16 -30 -16 -37 0 -21 -163
-344 -198 -392 -10 -14 -21 -32 -24 -41 -5 -12 -80 -128 -155 -239 -206 -302
-579 -695 -836 -880 -27 -19 -63 -47 -80 -61 -38 -30 -194 -139 -200 -139 -3
0 -31 -18 -63 -39 -33 -22 -79 -50 -104 -64 -25 -13 -87 -48 -138 -78 -50 -30
-109 -63 -130 -75 -21 -11 -52 -29 -68 -40 -16 -11 -40 -26 -54 -33 -51 -26
-107 -57 -163 -91 -32 -19 -77 -46 -101 -60 -24 -14 -67 -38 -96 -55 -29 -16
-72 -41 -96 -55 -110 -63 -218 -126 -319 -185 -60 -35 -152 -88 -203 -117 -51
-29 -114 -65 -140 -80 -26 -15 -67 -39 -92 -53 -68 -39 -131 -75 -222 -128
-46 -27 -128 -74 -183 -106 -262 -152 -306 -178 -390 -227 -49 -30 -108 -63
-130 -74 -22 -11 -65 -36 -95 -55 -30 -18 -73 -43 -95 -54 -22 -12 -65 -37
-95 -55 -30 -19 -73 -44 -95 -56 -22 -11 -61 -33 -86 -48 -26 -15 -69 -40 -95
-55 -27 -16 -67 -39 -89 -53 -22 -13 -58 -33 -81 -44 -22 -11 -52 -28 -65 -39
-13 -10 -40 -26 -59 -35 -19 -9 -57 -30 -85 -47 -27 -18 -69 -42 -92 -55 -24
-13 -62 -35 -85 -48 -24 -13 -65 -37 -93 -55 -27 -17 -69 -40 -92 -51 -23 -11
-45 -24 -47 -29 -3 -5 -31 -21 -62 -37 -63 -32 -81 -42 -167 -94 -32 -19 -77
-46 -102 -60 -131 -74 -236 -135 -285 -165 -30 -19 -73 -43 -95 -55 -47 -24
-115 -63 -182 -104 -26 -16 -66 -39 -88 -51 -22 -12 -85 -48 -140 -80 -55 -32
-124 -72 -154 -89 -29 -17 -74 -43 -100 -58 -25 -15 -64 -36 -86 -48 -22 -11
-71 -41 -110 -65 -38 -24 -73 -44 -76 -45 -4 0 -38 -19 -75 -42 -38 -23 -87
-52 -109 -64 -84 -48 -132 -75 -180 -104 -79 -46 -178 -103 -330 -190 -53 -30
-116 -66 -140 -80 -23 -14 -66 -38 -95 -55 -29 -16 -71 -41 -95 -55 -24 -14
-65 -37 -91 -53 -27 -15 -71 -40 -99 -57 -27 -16 -69 -39 -93 -51 -23 -12 -45
-25 -48 -30 -2 -5 -24 -18 -47 -29 -23 -11 -62 -33 -87 -50 -25 -16 -67 -41
-95 -55 -27 -14 -94 -51 -147 -83 -119 -70 -269 -157 -323 -187 -22 -12 -62
-36 -90 -53 -27 -17 -70 -42 -95 -55 -39 -20 -158 -88 -280 -160 -19 -11 -59
-34 -89 -51 -135 -78 -172 -100 -286 -167 -27 -16 -69 -38 -91 -48 -23 -11
-45 -24 -48 -30 -4 -6 -26 -20 -49 -31 -23 -11 -64 -34 -92 -51 -53 -34 -112
-68 -185 -106 -25 -13 -67 -38 -95 -55 -27 -17 -68 -41 -90 -53 -22 -12 -85
-48 -140 -80 -55 -32 -113 -65 -130 -74 -16 -9 -43 -25 -58 -35 -31 -21 -71
-44 -127 -73 -19 -10 -61 -34 -93 -53 -31 -19 -79 -47 -105 -62 -88 -50 -144
-83 -187 -108 -24 -14 -65 -37 -91 -53 -27 -15 -70 -40 -95 -55 -26 -15 -89
-51 -140 -80 -52 -30 -139 -80 -194 -112 -55 -33 -118 -69 -140 -80 -22 -11
-65 -36 -95 -55 -30 -19 -73 -44 -95 -55 -22 -11 -62 -34 -90 -52 -27 -17 -67
-40 -87 -52 -112 -64 -235 -133 -268 -151 -20 -11 -43 -25 -51 -32 -8 -6 -34
-22 -59 -36 -25 -13 -90 -50 -145 -82 -55 -32 -118 -68 -140 -81 -54 -31 -128
-74 -180 -104 -24 -14 -65 -38 -91 -53 -27 -15 -71 -41 -99 -57 -27 -16 -69
-38 -91 -49 -23 -10 -45 -24 -48 -30 -4 -6 -26 -20 -49 -31 -23 -11 -67 -36
-97 -55 -30 -19 -73 -44 -95 -55 -22 -12 -61 -33 -87 -48 -69 -40 -148 -85
-193 -112 -100 -59 -284 -160 -290 -160 -4 0 -19 -8 -33 -19 -15 -10 -38 -22
-52 -26 -14 -4 -54 -21 -90 -37 -105 -49 -141 -65 -215 -92 -127 -46 -189 -67
-275 -91 -47 -13 -105 -31 -129 -39 -24 -9 -57 -16 -73 -16 -15 0 -54 -9 -86
-20 -31 -11 -82 -23 -112 -26 -30 -3 -93 -13 -140 -21 -47 -8 -116 -20 -155
-26 -44 -7 -211 -12 -450 -12 -369 0 -385 1 -555 28 -344 55 -681 141 -838
213 -29 13 -59 24 -68 24 -8 0 -41 14 -74 30 -33 17 -64 30 -70 30 -14 0 -248
114 -325 159 -33 19 -76 43 -95 53 -19 11 -80 46 -135 78 -55 32 -142 82 -193
112 -51 29 -113 64 -137 78 -23 14 -66 39 -95 55 -29 17 -71 41 -95 55 -47 28
-124 72 -191 110 -24 14 -69 40 -101 59 -32 19 -75 44 -95 55 -44 24 -189 108
-257 148 -25 15 -66 39 -91 53 -25 14 -66 38 -92 53 -87 51 -163 94 -203 117
-35 20 -163 93 -280 161 -22 13 -60 35 -85 49 -25 14 -70 41 -100 60 -30 18
-73 43 -95 55 -22 11 -62 34 -90 50 -27 16 -66 37 -85 46 -19 10 -44 26 -55
35 -11 9 -32 23 -46 30 -38 20 -136 75 -194 109 -27 16 -68 38 -90 49 -22 12
-69 39 -105 62 -36 22 -78 47 -95 55 -16 8 -70 39 -120 69 -49 29 -116 69
-149 87 -85 47 -104 59 -169 98 -74 45 -142 84 -192 110 -22 12 -65 36 -95 55
-30 18 -97 58 -148 87 -51 29 -114 65 -140 80 -26 15 -65 37 -87 48 -22 12
-62 35 -90 52 -27 17 -95 57 -150 88 -55 32 -143 83 -195 113 -52 31 -113 66
-135 77 -22 11 -60 34 -85 50 -25 17 -63 39 -85 51 -22 11 -69 38 -105 59 -36
22 -83 49 -105 60 -22 11 -80 45 -130 74 -49 30 -133 79 -185 109 -52 30 -140
80 -195 112 -55 32 -118 68 -140 80 -22 12 -62 35 -88 51 -68 41 -136 80 -177
101 -19 10 -48 27 -63 37 -31 21 -70 43 -135 76 -23 12 -45 26 -48 31 -2 5
-24 18 -47 29 -44 22 -104 56 -184 104 -26 16 -66 39 -88 51 -22 12 -85 48
-140 80 -55 32 -163 94 -240 138 -152 87 -226 130 -283 164 -20 12 -57 34 -82
48 -25 14 -67 38 -95 55 -27 16 -70 40 -95 55 -25 14 -67 39 -95 55 -27 16
-66 38 -85 47 -19 10 -48 27 -63 37 -31 21 -35 23 -181 106 -53 30 -117 66
-141 80 -44 26 -106 61 -187 108 -72 41 -214 123 -277 160 -58 33 -132 75
-182 103 -16 9 -34 21 -41 27 -7 5 -34 22 -60 36 -27 14 -69 38 -95 53 -27 14
-61 34 -78 43 -16 8 -43 24 -58 34 -16 11 -41 26 -57 35 -33 19 -105 60 -175
101 -27 16 -68 39 -90 50 -22 12 -65 36 -95 55 -30 18 -111 65 -180 104 -69
39 -154 89 -190 111 -36 22 -83 49 -105 60 -61 32 -262 148 -325 189 -14 9
-41 24 -60 34 -49 26 -235 133 -290 167 -8 6 -40 24 -70 41 -30 16 -73 41 -95
53 -22 13 -85 49 -140 81 -55 32 -116 67 -135 78 -153 89 -230 133 -288 163
-29 14 -55 31 -58 35 -3 5 -20 16 -37 24 -18 9 -57 31 -87 50 -30 19 -73 44
-95 55 -22 11 -65 36 -95 55 -30 19 -73 44 -95 55 -49 26 -81 44 -165 94 -36
22 -83 49 -105 61 -22 13 -85 48 -140 80 -55 32 -120 69 -145 82 -25 14 -52
31 -60 37 -8 7 -28 20 -45 28 -16 8 -75 41 -130 73 -55 32 -114 66 -131 75
-16 9 -44 26 -61 38 -17 12 -34 22 -37 22 -6 0 -199 129 -281 189 -218 158
-452 371 -619 566 -202 236 -225 265 -336 435 -27 41 -57 86 -67 100 -46 63
-253 452 -253 473 0 5 -9 21 -19 36 -11 15 -23 40 -27 57 -4 16 -14 43 -22 59
-19 37 -68 172 -88 240 -8 28 -23 73 -33 100 -22 58 -46 149 -68 255 -9 41
-24 104 -34 140 -10 36 -21 97 -24 135 -4 39 -13 113 -20 165 -8 52 -19 138
-25 190 -15 127 -8 15230 7 15335 6 39 20 141 31 227 12 87 25 166 31 176 5
10 17 63 26 116 8 54 22 110 29 124 8 15 19 54 25 87 6 33 20 83 30 110 18 49
29 79 77 219 13 38 28 74 33 80 5 6 14 29 21 51 7 22 21 52 31 67 11 14 19 32
19 40 0 16 113 240 141 280 10 14 19 29 19 32 0 13 106 181 195 311 33 48 67
97 75 109 8 12 62 80 120 152 129 159 338 373 485 497 121 102 364 286 429
324 22 13 61 37 86 53 25 16 86 52 135 80 50 28 115 67 145 85 30 19 73 44 95
55 22 12 63 34 90 50 28 16 66 37 85 47 19 9 43 23 52 31 17 14 57 37 118 68
19 10 48 27 64 38 17 11 44 28 60 37 91 48 132 72 143 81 7 5 27 18 45 27 52
28 116 64 218 124 52 31 136 79 185 107 50 28 115 66 145 85 59 36 95 57 175
100 28 15 75 42 105 61 30 18 75 45 100 59 25 14 68 39 95 55 28 17 68 39 90
50 22 11 85 47 140 80 55 33 141 82 190 110 50 28 135 78 190 111 55 32 118
68 140 79 22 11 60 34 85 50 25 17 63 39 85 50 22 11 65 36 95 55 30 19 66 40
80 47 14 7 55 30 92 53 37 22 87 51 112 65 116 66 371 212 474 272 26 15 67
39 92 54 51 28 82 46 225 129 55 32 120 69 145 82 25 14 52 30 60 37 8 6 31
20 50 29 44 23 101 55 165 96 28 17 66 39 85 49 19 9 69 37 110 62 77 46 93
55 177 103 26 15 71 40 98 56 28 17 66 38 85 49 19 10 64 36 100 57 101 59
141 82 190 110 25 13 68 38 95 55 28 17 70 42 95 55 25 14 68 39 95 55 28 16
68 38 90 50 22 12 60 34 85 51 25 16 68 40 97 53 28 14 54 30 57 35 4 6 26 20
49 31 46 23 105 56 194 110 32 19 74 44 94 55 44 24 168 95 309 177 58 33 119
68 136 77 16 9 43 26 60 37 16 11 40 26 54 33 14 6 48 25 75 41 28 16 69 39
92 50 23 11 45 25 49 31 3 6 25 19 48 30 22 11 66 35 96 54 30 18 73 43 95 55
41 22 98 54 181 104 27 16 94 54 149 86 115 65 148 84 230 134 33 19 78 45
100 56 22 11 65 36 95 55 30 19 73 44 95 55 22 11 63 34 90 51 28 18 71 44 97
58 56 31 203 115 267 153 25 15 62 35 81 45 19 10 49 28 65 39 17 12 65 41
108 65 43 24 99 56 125 71 26 15 63 35 82 44 19 9 42 22 51 30 16 14 54 36
144 84 22 11 65 36 95 55 30 19 74 43 96 54 23 11 45 24 48 30 4 6 26 20 49
31 23 11 65 34 92 50 28 16 70 41 95 55 25 15 68 39 95 55 28 17 66 38 85 48
19 10 70 39 112 65 42 26 79 47 81 47 3 0 36 19 73 42 38 23 87 52 109 64 81
46 131 75 177 102 26 15 89 51 140 80 51 30 138 80 193 112 55 33 118 68 140
80 22 11 69 38 105 61 36 22 79 47 95 55 17 8 75 41 130 74 55 32 141 82 190
110 50 28 113 65 140 82 28 17 69 41 93 54 68 39 148 84 281 160 20 11 59 35
86 52 28 18 68 41 90 52 54 27 117 63 152 87 15 10 39 25 53 31 14 7 50 28 80
47 30 18 73 43 95 55 22 11 63 34 90 50 53 31 117 68 191 110 124 71 445 220
474 220 6 0 33 11 60 25 27 14 57 25 67 25 10 0 41 11 68 24 28 13 72 26 99
30 26 4 67 16 91 26 24 10 65 21 92 25 26 4 75 15 108 25 33 11 101 24 150 30
50 6 117 17 150 24 189 43 593 53 978 25z"/>
<path d="M56918 48689 c-17 -9 -18 -78 -18 -1224 0 -719 4 -1216 9 -1219 5 -4
2778 -6 6162 -6 4972 0 6156 2 6166 13 19 18 20 2417 1 2429 -7 4 -2772 8
-6145 8 -3372 0 -6137 2 -6145 5 -7 2 -21 0 -30 -6z"/>
<path d="M78715 48690 c-4215 -5 -4564 -6 -4610 -22 -27 -9 -90 -21 -140 -28
-49 -6 -130 -22 -180 -35 -182 -48 -201 -53 -230 -64 -16 -5 -51 -17 -77 -26
-122 -39 -146 -48 -194 -71 -28 -13 -57 -24 -65 -24 -13 0 -331 -158 -420
-209 -312 -178 -630 -434 -866 -696 -120 -133 -329 -405 -378 -491 -8 -16 -29
-49 -45 -74 -16 -25 -40 -65 -53 -90 -13 -25 -35 -65 -49 -90 -41 -74 -55
-102 -81 -160 -14 -30 -39 -86 -56 -124 -17 -37 -31 -72 -31 -77 0 -6 -8 -26
-17 -47 -25 -56 -71 -188 -92 -269 -11 -40 -24 -81 -29 -90 -6 -10 -15 -51
-21 -91 -6 -40 -20 -105 -30 -145 -11 -40 -22 -106 -26 -147 -3 -41 -12 -113
-20 -160 -32 -197 -39 -486 -17 -685 40 -361 64 -506 119 -695 51 -180 134
-421 167 -486 8 -16 52 -105 97 -198 46 -93 97 -190 113 -215 16 -25 39 -62
51 -81 12 -19 29 -46 38 -60 10 -14 29 -43 44 -65 174 -265 525 -638 768 -818
201 -148 271 -197 281 -197 4 0 21 -10 38 -23 66 -50 367 -206 521 -270 175
-72 343 -130 416 -142 24 -4 57 -14 73 -22 16 -8 72 -21 124 -29 53 -8 120
-21 148 -30 29 -8 101 -20 161 -25 59 -6 146 -15 193 -21 57 -7 997 -13 2825
-17 2833 -7 2778 -6 2854 -45 15 -8 44 -18 65 -21 36 -7 133 -53 221 -106 120
-71 278 -224 369 -356 31 -45 56 -85 56 -89 0 -4 13 -34 29 -68 61 -130 72
-160 86 -251 9 -53 20 -107 25 -121 15 -38 12 -215 -4 -260 -7 -22 -16 -68
-20 -104 -8 -67 -52 -189 -109 -302 -89 -174 -262 -363 -427 -465 -137 -85
-299 -146 -435 -163 -49 -6 -109 -16 -132 -21 -25 -5 -1762 -9 -4398 -9
l-4355 0 -10 -26 c-6 -16 -10 -912 -10 -2488 0 -2071 2 -2465 14 -2475 16 -14
20 -10 66 74 19 33 41 71 50 85 26 38 62 96 125 200 32 52 71 114 86 137 16
23 29 44 29 48 0 4 21 40 48 80 44 69 131 207 197 315 48 79 96 156 157 254
32 50 67 107 78 126 12 19 35 58 53 87 18 29 52 85 76 125 25 40 52 82 62 93
9 11 24 36 33 55 9 19 43 76 75 125 33 50 83 128 111 175 28 47 65 105 80 130
16 25 41 65 55 90 14 25 50 83 80 130 30 47 64 101 75 120 11 19 31 49 45 65
l25 30 3722 6 c3463 5 3729 6 3803 22 44 10 116 22 160 28 44 6 125 21 180 34
55 14 123 29 150 35 99 20 345 100 421 136 28 13 57 24 64 24 17 0 65 22 245
112 133 67 180 92 271 146 133 79 135 80 304 204 335 245 695 641 916 1008 69
115 214 395 214 413 0 7 10 30 21 52 20 37 32 68 74 190 10 28 26 69 36 91 10
23 21 59 24 80 4 22 17 73 30 114 13 41 31 119 39 172 9 54 21 110 27 125 6
16 20 120 32 233 24 235 28 551 9 725 -6 61 -16 154 -22 208 -5 53 -17 125
-26 160 -9 34 -22 96 -28 137 -15 84 -47 203 -82 300 -13 36 -26 81 -30 100
-4 19 -13 45 -21 57 -8 12 -21 41 -28 65 -33 103 -189 426 -248 514 -15 21
-27 42 -27 47 0 6 -83 134 -148 227 -126 183 -400 486 -577 641 -71 62 -243
192 -349 264 -157 107 -211 137 -431 248 -93 47 -181 89 -194 92 -14 4 -45 18
-69 31 -25 13 -54 24 -66 24 -12 0 -36 9 -54 20 -19 12 -63 28 -100 36 -36 8
-75 20 -86 26 -11 6 -54 19 -96 28 -41 10 -104 25 -140 33 -142 35 -363 68
-515 77 -97 6 -1192 10 -2790 10 -2630 0 -2630 0 -2745 21 -63 11 -143 31
-178 45 -34 13 -68 24 -75 24 -19 0 -163 76 -237 125 -74 49 -220 186 -272
255 -92 123 -187 312 -203 405 -4 22 -16 76 -26 120 -23 99 -26 304 -5 385 8
30 20 84 27 120 6 36 23 85 35 110 13 25 24 49 24 55 0 14 45 99 88 165 133
206 303 352 530 454 44 20 87 36 95 36 9 0 40 9 69 21 29 11 98 26 153 32 70
7 1181 12 3700 14 3455 3 3601 4 3624 21 14 10 29 27 35 38 6 10 22 36 35 58
14 21 30 46 36 56 23 40 78 128 105 170 16 25 39 61 50 80 11 19 34 55 50 80
16 25 42 68 59 95 33 53 38 61 86 136 17 26 53 83 80 128 71 117 105 171 130
211 12 19 43 69 69 110 26 41 57 90 69 109 36 56 85 134 107 171 11 19 34 55
50 80 16 25 37 59 46 75 9 17 42 68 72 115 54 82 80 124 129 203 13 20 34 54
47 75 12 20 49 80 81 132 32 52 85 135 117 184 61 93 67 115 33 125 -11 3
-2072 4 -4580 1z"/>
<path d="M56909 43846 c-5 -6 -9 -1112 -9 -2965 l0 -2955 24 -35 c12 -20 49
-79 81 -131 32 -52 69 -112 81 -132 41 -65 73 -117 97 -155 13 -21 39 -63 58
-93 19 -30 40 -64 46 -75 7 -11 47 -75 90 -142 43 -68 89 -143 103 -167 14
-24 33 -53 43 -63 9 -11 17 -24 17 -30 0 -5 13 -27 30 -49 16 -21 30 -43 30
-48 0 -5 10 -23 23 -40 12 -17 49 -74 81 -126 32 -52 69 -111 81 -130 12 -19
59 -96 105 -170 95 -155 112 -183 165 -265 21 -33 49 -77 62 -97 13 -21 34
-55 47 -75 12 -21 99 -159 191 -308 92 -148 179 -288 193 -310 14 -22 36 -57
49 -77 13 -21 35 -57 50 -80 14 -24 36 -59 48 -78 12 -19 39 -62 60 -95 54
-85 100 -159 169 -272 16 -27 39 -65 52 -85 13 -21 36 -57 51 -80 14 -24 38
-61 51 -83 14 -22 38 -59 54 -82 15 -23 28 -46 28 -51 0 -6 10 -23 23 -39 13
-15 52 -76 86 -135 45 -77 69 -108 82 -108 19 0 19 88 19 3663 0 3537 1 3664
18 3680 17 16 235 17 2926 17 2661 0 2910 1 2934 16 24 15 102 121 102 139 0
4 13 25 28 48 37 54 65 98 140 222 34 55 82 134 108 175 26 41 58 93 71 115
14 22 39 63 56 91 18 28 43 70 57 93 14 23 42 68 63 101 20 33 74 119 118 192
45 73 90 144 100 157 11 13 19 28 19 33 0 5 8 21 18 36 54 80 79 120 90 142 6
14 20 36 31 50 10 14 44 68 76 120 32 52 68 111 80 130 12 19 35 56 51 83 42
69 84 137 109 177 12 19 50 80 83 135 33 55 70 112 81 126 24 31 36 75 23 83
-17 10 -9832 12 -9843 2z"/>
<path d="M18935 17758 c-3 -29 -5 -588 -3 -1243 l3 -1190 4917 -3 c4885 -2
4917 -2 4928 18 13 24 9 2426 -4 2453 -8 16 -252 17 -4921 17 l-4914 0 -6 -52z"/>
<path d="M51957 16512 c-9 -2 -19 -13 -22 -25 -3 -12 -4 -2900 -3 -6417 l3
-6395 1204 -3 c881 -1 1207 1 1217 9 20 16 21 12786 2 12812 -12 16 -97 17
-1199 20 -652 1 -1193 1 -1202 -1z"/>
<path d="M58064 16513 c-975 -3 -1184 -5 -1193 -17 -17 -21 -16 -12796 2
-12813 10 -10 250 -13 1202 -13 655 0 1207 0 1228 0 l37 0 0 6420 0 6420 -27
0 c-16 0 -37 1 -48 3 -11 1 -552 1 -1201 0z"/>
<path d="M72030 16509 c-3323 -5 -3583 -8 -3715 -38 -22 -5 -92 -14 -155 -21
-200 -19 -637 -105 -760 -149 -30 -11 -73 -23 -95 -26 -22 -4 -50 -13 -62 -21
-12 -8 -48 -20 -80 -28 -59 -15 -136 -43 -208 -77 -22 -10 -63 -26 -91 -34
-29 -8 -57 -22 -64 -30 -7 -8 -17 -15 -23 -15 -14 0 -160 -74 -227 -115 -30
-19 -71 -43 -90 -55 -80 -48 -110 -68 -210 -144 -221 -167 -376 -327 -581
-601 -48 -64 -75 -106 -115 -175 -20 -36 -42 -72 -49 -80 -12 -15 -102 -191
-164 -320 -16 -36 -33 -78 -37 -95 -4 -16 -18 -50 -31 -74 -12 -24 -23 -52
-23 -62 0 -10 -11 -47 -24 -81 -38 -97 -108 -354 -128 -468 -5 -30 -20 -113
-33 -185 -13 -71 -29 -197 -35 -280 -14 -184 -17 -198 -35 -191 -10 3 -15 -1
-15 -12 0 -15 -2 -15 -10 -2 -6 10 -10 -140 -10 -433 0 -296 3 -446 10 -442 6
3 10 2 10 -4 0 -6 7 -8 15 -5 17 7 22 -12 29 -121 13 -181 27 -303 42 -360 8
-33 19 -99 24 -146 5 -47 16 -101 24 -120 8 -19 21 -74 30 -121 8 -48 22 -100
31 -117 8 -17 20 -54 25 -82 5 -28 17 -65 25 -84 9 -18 22 -55 30 -81 7 -27
30 -87 50 -134 20 -47 45 -105 55 -130 23 -57 122 -246 152 -293 13 -19 45
-71 73 -114 85 -135 230 -315 351 -437 56 -56 251 -229 272 -240 9 -6 47 -33
84 -60 111 -84 256 -171 423 -254 171 -85 252 -122 268 -122 8 0 34 -11 59
-24 25 -13 60 -27 79 -31 19 -3 63 -17 99 -30 113 -41 163 -56 249 -76 46 -11
91 -24 101 -29 10 -5 62 -17 117 -25 54 -9 127 -25 163 -35 36 -10 101 -21
145 -25 44 -3 112 -13 150 -21 67 -14 386 -43 530 -49 39 -1 93 -5 120 -9 28
-4 826 -8 1775 -9 1755 -3 1972 -7 2125 -42 39 -8 98 -20 133 -25 34 -6 79
-17 99 -25 20 -8 63 -22 96 -31 34 -8 70 -22 81 -30 12 -8 39 -19 60 -25 22
-6 56 -22 75 -35 20 -13 39 -24 42 -24 40 0 260 -202 334 -305 50 -71 115
-191 115 -214 0 -9 7 -27 16 -39 45 -65 98 -386 98 -597 -1 -139 -23 -357 -43
-419 -11 -33 -27 -86 -35 -116 -49 -189 -185 -382 -362 -515 -79 -60 -266
-160 -329 -176 -22 -5 -60 -18 -85 -28 -25 -11 -65 -22 -90 -26 -25 -3 -72
-15 -105 -26 -33 -10 -134 -26 -225 -36 -153 -16 -409 -18 -3423 -23 -3211 -5
-3259 -5 -3273 -24 -20 -28 -21 -2372 -1 -2399 11 -17 206 -17 3452 -13 2260
2 3466 7 3515 14 41 6 158 19 260 30 169 18 283 36 490 78 41 8 116 23 165 33
50 10 100 23 113 30 12 6 60 21 105 31 96 23 189 52 268 86 31 13 65 24 75 24
11 0 37 12 59 25 22 14 47 25 56 25 17 0 338 161 411 206 402 250 680 532 946
959 14 22 33 51 42 65 15 23 103 200 163 330 14 30 29 69 33 85 4 17 17 50 30
75 12 25 26 63 30 85 4 22 18 62 30 90 13 27 24 60 24 73 0 12 10 51 21 85 12
34 27 91 34 127 7 36 22 112 34 170 70 350 85 535 85 1040 0 320 -15 667 -33
765 -5 28 -17 106 -26 175 -9 69 -24 154 -35 190 -10 36 -22 90 -25 120 -4 30
-18 89 -30 130 -13 41 -26 93 -30 115 -4 21 -15 55 -25 75 -9 19 -23 59 -29
89 -6 30 -16 60 -21 66 -6 7 -19 36 -29 66 -40 115 -144 339 -203 439 -103
173 -175 278 -297 429 -72 89 -248 265 -336 335 -194 155 -210 166 -435 304
-19 12 -51 29 -70 38 -19 9 -42 22 -50 28 -8 7 -31 19 -50 26 -19 7 -47 21
-61 31 -14 10 -38 21 -55 25 -16 4 -49 18 -73 31 -24 12 -51 23 -59 23 -8 0
-34 11 -56 24 -23 13 -58 26 -80 30 -21 4 -57 16 -80 26 -62 27 -191 69 -281
90 -44 10 -109 26 -145 35 -335 82 -581 115 -1155 157 -71 5 -956 13 -1965 17
-1348 6 -1848 11 -1885 19 -27 7 -91 18 -141 26 -50 8 -128 26 -173 40 -45 14
-91 26 -102 26 -11 0 -42 11 -69 25 -27 14 -56 25 -64 25 -20 0 -171 79 -243
127 -111 73 -230 194 -304 308 -47 72 -86 149 -94 185 -4 19 -15 51 -25 70
-10 19 -23 69 -30 110 -6 41 -18 101 -26 133 -18 70 -21 418 -5 517 48 303
110 456 260 644 63 78 202 194 279 232 29 15 55 30 57 35 3 4 22 13 43 20 20
6 49 20 63 30 14 10 47 23 74 29 26 6 61 18 79 27 17 9 58 22 91 28 33 7 87
20 120 29 33 9 121 23 195 32 74 9 173 20 220 26 56 7 1197 12 3295 14 1766 2
3218 5 3228 8 16 4 17 70 17 1204 0 1251 1 1212 -40 1223 -8 2 -1525 1 -3370
-2z"/>
<path d="M39620 13539 c-19 -4 -151 -8 -293 -8 -142 0 -262 -3 -267 -6 -11 -7
-59 -12 -390 -44 -113 -10 -237 -26 -276 -35 -39 -8 -102 -18 -140 -22 -38 -3
-96 -13 -129 -21 -33 -9 -105 -24 -160 -34 -137 -25 -264 -55 -360 -85 -44
-13 -88 -24 -98 -24 -10 0 -46 -11 -80 -24 -34 -13 -84 -29 -110 -35 -27 -7
-59 -18 -70 -25 -12 -8 -45 -19 -73 -25 -29 -5 -67 -19 -85 -30 -19 -10 -48
-22 -65 -25 -16 -4 -52 -18 -79 -31 -26 -14 -55 -25 -63 -25 -8 0 -31 -9 -51
-19 -40 -21 -147 -72 -201 -96 -19 -9 -57 -28 -85 -44 -27 -15 -70 -39 -95
-52 -104 -58 -154 -89 -280 -173 -192 -129 -270 -190 -474 -371 -113 -100
-356 -374 -441 -499 -11 -16 -29 -41 -40 -56 -106 -147 -196 -299 -287 -485
-21 -44 -50 -101 -63 -128 -14 -26 -25 -53 -25 -60 0 -6 -14 -39 -30 -72 -16
-33 -30 -67 -30 -75 0 -8 -9 -31 -19 -51 -11 -20 -24 -56 -31 -80 -6 -24 -19
-64 -29 -89 -10 -25 -26 -73 -35 -107 -9 -35 -23 -91 -32 -125 -9 -35 -27 -99
-39 -143 -13 -44 -26 -107 -30 -139 -4 -33 -15 -91 -25 -130 -10 -39 -24 -123
-30 -186 -7 -63 -14 -118 -16 -121 -11 -19 -26 -165 -39 -374 -20 -323 -22
-5234 -3 -5253 9 -9 300 -12 1249 -12 1114 0 1239 2 1253 16 15 14 16 243 16
2432 0 1523 4 2461 10 2537 10 118 48 327 76 415 8 25 23 72 34 105 42 136
147 372 185 415 7 8 20 30 30 48 64 128 363 432 539 550 59 39 113 72 119 72
6 0 18 6 26 14 32 27 239 126 306 147 22 6 56 20 75 30 19 11 42 19 52 19 9 0
47 11 85 24 72 25 149 46 273 72 41 8 118 25 170 36 52 11 142 25 200 29 58 5
141 13 185 19 182 23 438 28 1373 29 l982 1 0 1220 0 1220 -1017 -1 c-560 -1
-1034 -5 -1053 -10z"/>
<path d="M44015 13239 c-4 -5 -7 -348 -6 -762 l0 -751 1536 -1536 c1211 -1211
1536 -1541 1538 -1563 2 -23 -197 -225 -1536 -1565 l-1538 -1538 0 -759 c0
-616 3 -759 13 -757 23 6 4608 4596 4608 4613 0 10 -1015 1031 -2255 2270
-1241 1240 -2274 2278 -2298 2307 -43 54 -51 59 -62 41z"/>
<path d="M83376 13113 c-4 -4 -166 -11 -359 -15 -194 -4 -392 -12 -442 -16
-49 -5 -139 -14 -200 -20 -60 -6 -169 -16 -241 -22 -72 -6 -162 -17 -200 -25
-38 -9 -122 -20 -186 -25 -64 -6 -135 -17 -158 -25 -23 -8 -80 -19 -128 -25
-48 -6 -109 -18 -137 -26 -27 -8 -91 -21 -142 -29 -50 -9 -107 -22 -125 -30
-19 -7 -66 -19 -104 -26 -38 -6 -81 -18 -95 -25 -15 -7 -62 -21 -105 -30 -43
-8 -90 -22 -104 -29 -14 -7 -54 -20 -89 -29 -36 -9 -69 -20 -75 -25 -6 -5 -36
-16 -66 -24 -30 -9 -73 -25 -95 -37 -21 -11 -45 -20 -52 -20 -8 0 -36 -11 -63
-25 -27 -14 -57 -25 -65 -25 -9 0 -42 -13 -73 -29 -50 -26 -113 -55 -192 -91
-14 -6 -47 -25 -75 -41 -27 -16 -68 -38 -90 -49 -22 -11 -65 -36 -95 -55 -30
-19 -72 -43 -92 -55 -20 -11 -40 -24 -43 -30 -3 -6 -23 -19 -43 -30 -20 -11
-68 -45 -107 -76 -38 -30 -102 -80 -141 -110 -121 -91 -428 -428 -509 -557
-11 -18 -40 -60 -65 -94 -25 -34 -52 -74 -62 -90 -9 -15 -46 -77 -82 -138 -76
-127 -188 -352 -245 -490 -55 -136 -74 -185 -91 -240 -10 -33 -25 -78 -34
-100 -8 -22 -15 -48 -16 -58 0 -10 -9 -40 -21 -66 -18 -44 -28 -81 -73 -286
-9 -38 -25 -108 -36 -155 -11 -47 -24 -123 -30 -170 -6 -47 -19 -137 -30 -200
-35 -202 -54 -548 -53 -955 1 -203 4 -408 7 -455 12 -206 37 -498 46 -535 5
-22 16 -94 25 -159 8 -66 24 -151 34 -190 11 -39 22 -97 26 -129 4 -32 15 -82
25 -111 9 -29 21 -72 25 -97 7 -45 39 -151 81 -269 13 -36 27 -81 31 -100 3
-19 17 -55 30 -79 13 -24 23 -53 23 -65 0 -12 11 -39 25 -61 13 -22 25 -47 25
-55 0 -8 11 -37 25 -65 13 -27 31 -66 40 -85 31 -69 40 -85 125 -235 223 -395
537 -760 835 -974 214 -154 361 -251 381 -251 6 0 23 -9 37 -21 29 -22 346
-182 386 -194 14 -4 45 -18 69 -31 25 -13 51 -24 58 -24 8 0 37 -11 66 -24 81
-36 157 -66 223 -86 33 -10 80 -25 105 -33 144 -48 180 -59 230 -71 30 -7 89
-22 130 -34 41 -11 95 -25 120 -31 239 -58 382 -89 515 -111 66 -10 143 -24
170 -29 28 -5 102 -14 165 -21 63 -6 133 -16 154 -22 22 -5 150 -19 285 -29
135 -11 291 -25 346 -30 129 -13 3974 -24 3987 -11 14 14 11 2401 -3 2418 -9
12 -305 15 -1763 18 -963 3 -1787 7 -1831 10 -249 14 -452 33 -505 46 -19 5
-80 14 -135 20 -55 6 -122 18 -150 26 -27 8 -91 21 -142 29 -50 9 -106 22
-125 29 -18 8 -62 20 -98 26 -35 6 -77 18 -94 27 -16 8 -57 23 -90 33 -135 40
-190 62 -382 158 -118 59 -172 91 -224 130 -14 10 -36 25 -50 32 -70 37 -327
281 -382 363 -12 19 -41 61 -62 93 -131 196 -242 487 -272 714 -8 60 -19 122
-25 137 -16 41 -23 451 -11 558 24 200 53 373 72 429 11 33 20 71 20 85 0 14
11 49 24 77 13 28 27 66 31 84 23 104 165 361 287 518 125 160 344 349 548
470 63 38 298 151 327 158 15 4 42 15 58 24 17 10 46 21 65 25 19 4 51 15 70
25 19 9 63 22 97 29 35 7 79 19 98 27 20 8 70 21 113 29 42 8 101 21 130 29
29 8 94 20 145 25 50 6 106 15 124 20 17 5 82 14 145 20 62 6 156 16 208 21
168 17 222 21 360 27 265 11 1089 2 1173 -13 23 -4 80 -8 127 -9 184 -3 496
-27 685 -54 39 -5 119 -15 180 -21 60 -7 126 -18 146 -25 19 -7 78 -18 130
-25 52 -7 116 -21 142 -31 26 -11 58 -19 70 -19 12 -1 47 -10 77 -21 30 -11
80 -27 110 -35 61 -17 249 -106 293 -139 125 -93 169 -146 213 -262 30 -80 30
-86 0 -159 -51 -126 -175 -184 -446 -210 -85 -8 -180 -19 -211 -24 -35 -6
-810 -10 -2127 -10 -2038 0 -2071 0 -2082 -19 -7 -13 -10 -407 -10 -1205 0
-1064 2 -1186 16 -1200 14 -14 232 -16 2257 -16 2225 0 2490 4 2669 35 46 7
130 19 188 25 58 6 139 20 180 30 41 10 100 21 130 25 30 4 78 16 105 25 28
10 77 24 110 30 33 7 76 20 95 30 19 9 53 21 74 24 22 4 61 19 88 32 26 13 52
24 58 24 13 0 147 56 170 70 8 6 38 21 65 35 134 67 290 169 389 252 38 32 87
72 110 89 76 57 292 326 362 449 48 85 144 283 164 340 56 155 98 298 105 350
4 28 15 84 25 125 10 41 23 140 29 220 6 80 13 172 16 205 13 155 16 345 6
405 -5 36 -15 142 -20 236 -7 118 -18 203 -36 278 -14 59 -25 120 -25 134 -1
15 -8 45 -16 67 -9 22 -24 76 -35 119 -11 44 -24 85 -28 90 -5 6 -16 34 -24
61 -8 28 -24 68 -36 90 -11 22 -21 46 -21 53 0 8 -11 35 -24 61 -13 25 -31 62
-40 81 -68 142 -169 300 -300 467 -201 257 -406 441 -702 630 -10 7 -40 24
-66 38 -26 13 -49 29 -52 34 -4 5 -23 15 -44 22 -20 6 -44 18 -53 25 -8 8 -31
19 -50 25 -19 7 -45 20 -59 29 -14 10 -36 20 -50 24 -14 4 -50 17 -80 30 -117
50 -167 69 -211 81 -26 7 -60 20 -76 28 -16 9 -47 19 -68 23 -22 4 -60 16 -85
26 -25 11 -78 26 -118 34 -40 8 -82 18 -92 24 -11 6 -61 19 -112 30 -51 11
-118 26 -148 35 -30 8 -64 15 -75 15 -12 0 -55 9 -96 19 -41 11 -135 29 -209
40 -74 11 -151 25 -170 30 -19 6 -91 15 -160 21 -69 6 -163 18 -210 26 -46 8
-199 24 -340 35 -140 12 -300 25 -355 30 -189 17 -1486 45 -1499 32z"/>
<path d="M95546 13113 c-4 -5 -148 -11 -319 -16 -172 -4 -348 -11 -392 -16
-44 -5 -176 -18 -293 -30 -117 -11 -243 -27 -280 -35 -37 -8 -114 -20 -172
-26 -58 -6 -125 -17 -150 -25 -25 -7 -85 -19 -135 -25 -49 -7 -105 -18 -123
-26 -19 -8 -64 -19 -100 -24 -37 -6 -103 -22 -147 -35 -44 -13 -127 -38 -185
-56 -58 -17 -133 -42 -168 -55 -34 -13 -70 -24 -80 -24 -9 0 -31 -9 -49 -19
-17 -11 -51 -25 -75 -31 -23 -7 -63 -23 -88 -36 -25 -13 -51 -24 -58 -24 -8 0
-35 -11 -61 -24 -25 -13 -77 -39 -116 -57 -38 -19 -97 -51 -130 -71 -33 -21
-80 -49 -105 -63 -25 -14 -63 -39 -85 -56 -22 -16 -51 -37 -65 -46 -29 -20
-114 -88 -214 -171 -71 -58 -249 -233 -299 -293 -164 -198 -261 -333 -365
-509 -38 -65 -202 -397 -202 -410 0 -6 -11 -33 -24 -59 -14 -25 -31 -66 -40
-91 -8 -25 -29 -83 -46 -130 -17 -47 -38 -107 -46 -135 -9 -27 -24 -72 -34
-100 -10 -27 -25 -77 -33 -110 -9 -33 -22 -85 -31 -115 -23 -84 -45 -177 -61
-265 -9 -44 -25 -120 -35 -170 -11 -49 -27 -153 -35 -230 -9 -77 -20 -156 -25
-175 -49 -185 -49 -1705 0 -1890 5 -19 16 -98 25 -175 8 -77 24 -180 35 -230
10 -49 26 -126 35 -170 16 -88 38 -181 61 -265 9 -30 23 -82 31 -115 8 -33 22
-78 30 -100 8 -22 23 -67 33 -100 10 -33 33 -98 50 -145 17 -47 38 -105 47
-130 8 -25 25 -69 39 -97 13 -29 35 -77 48 -105 45 -102 149 -303 167 -327 11
-13 19 -29 19 -36 0 -6 13 -29 30 -51 16 -21 30 -42 30 -45 0 -13 154 -230
203 -289 138 -163 413 -432 536 -523 91 -68 106 -79 209 -148 137 -93 194
-129 205 -129 5 0 21 -9 36 -19 14 -10 45 -24 68 -30 23 -6 45 -16 48 -21 3
-4 29 -16 58 -25 28 -10 66 -25 82 -35 17 -10 46 -21 65 -25 19 -4 51 -15 70
-25 49 -25 232 -84 390 -126 36 -9 98 -28 138 -40 40 -13 83 -24 95 -24 13 0
57 -9 98 -20 41 -11 128 -29 194 -40 66 -11 135 -24 154 -30 19 -5 82 -14 140
-20 58 -6 138 -18 176 -26 39 -8 174 -24 300 -35 127 -12 268 -25 315 -30 107
-13 4050 -23 4068 -11 10 7 13 242 13 1199 -1 655 -3 1198 -7 1207 -3 9 -7 17
-8 18 0 2 -806 6 -1791 10 -984 3 -1812 9 -1840 11 -27 3 -106 10 -175 16
-121 10 -223 25 -240 36 -4 3 -43 10 -86 16 -44 5 -114 21 -157 35 -43 13 -88
24 -100 24 -12 0 -44 11 -72 23 -27 13 -66 27 -85 30 -19 4 -53 16 -75 27 -22
11 -77 35 -122 54 -45 20 -115 54 -155 77 -40 23 -82 47 -93 53 -146 83 -336
255 -459 416 -51 67 -152 230 -161 262 -4 13 -14 34 -22 46 -13 22 -24 49 -67
172 -63 183 -111 412 -128 619 -22 263 -10 751 22 906 6 27 19 95 30 150 11
55 29 126 40 157 11 32 20 64 20 72 0 16 65 189 86 226 7 14 20 41 29 60 8 19
28 56 43 82 15 26 35 61 45 78 31 54 172 222 244 290 130 125 279 226 468 318
129 63 356 152 386 152 11 0 53 11 92 24 40 14 95 28 122 32 28 3 84 15 125
26 41 10 136 23 210 29 74 5 158 15 185 21 75 18 89 18 1952 26 952 4 1734 10
1737 13 12 12 7 2402 -4 2413 -13 13 -3452 21 -3464 9z"/>
<path d="M100691 13103 l-22 -18 4 -2960 c4 -2941 6 -3153 37 -3255 6 -19 17
-87 25 -150 15 -118 54 -300 81 -380 9 -25 24 -79 33 -120 10 -41 24 -88 33
-105 9 -16 19 -46 23 -65 4 -19 18 -55 31 -80 13 -25 24 -51 24 -58 0 -37 154
-340 248 -487 206 -323 503 -639 791 -840 39 -27 87 -61 105 -75 19 -14 47
-33 63 -42 15 -10 35 -22 43 -27 56 -36 180 -106 265 -148 55 -27 109 -54 120
-60 37 -20 154 -73 162 -73 4 0 28 -11 53 -24 25 -13 61 -27 80 -31 19 -4 55
-18 80 -30 25 -12 63 -26 85 -29 21 -4 55 -16 75 -25 19 -10 53 -22 75 -26 21
-3 52 -13 67 -21 15 -8 63 -22 105 -30 43 -9 91 -23 107 -31 16 -8 58 -19 95
-24 36 -5 93 -18 126 -28 33 -11 100 -24 149 -31 49 -6 98 -16 108 -21 10 -6
69 -16 131 -24 62 -8 168 -23 237 -35 69 -11 211 -27 315 -36 105 -9 228 -20
275 -24 170 -17 1094 -23 1400 -11 162 7 313 16 335 21 22 5 136 17 254 25
118 9 218 18 222 21 13 8 100 22 204 33 55 7 121 18 148 26 26 8 84 19 130 25
45 6 111 20 147 30 36 11 95 24 131 30 37 5 83 17 104 25 20 9 62 21 93 26 31
6 69 17 84 25 15 8 58 21 95 29 37 8 86 23 108 35 21 11 49 20 61 20 11 0 42
11 68 25 26 14 55 25 64 25 9 0 44 14 77 30 33 16 66 30 74 30 8 0 33 11 55
24 23 13 55 27 73 30 17 4 37 14 43 21 6 8 28 19 48 26 20 6 48 20 62 29 14
10 45 27 70 38 25 12 54 27 65 34 11 7 43 26 70 42 428 251 819 621 1063 1006
81 127 222 389 222 413 0 7 9 31 21 52 20 39 39 87 74 190 10 28 26 73 37 100
11 28 24 70 29 95 5 25 18 72 29 105 10 33 24 89 30 125 6 36 19 103 30 150
11 47 24 130 30 185 6 55 16 123 21 150 25 133 29 579 29 3277 0 2565 -2 2838
-16 2852 -14 14 -136 16 -1200 16 -1171 0 -1184 0 -1204 -20 -20 -20 -20 -33
-20 -2762 0 -1821 -3 -2760 -10 -2797 -6 -31 -17 -99 -24 -151 -14 -99 -41
-190 -82 -275 -13 -28 -24 -55 -24 -60 0 -6 -31 -58 -70 -115 -104 -157 -310
-355 -442 -425 -85 -46 -306 -153 -338 -164 -225 -82 -449 -141 -614 -161 -49
-6 -96 -15 -105 -19 -22 -12 -168 -26 -496 -48 -109 -7 -764 -7 -890 0 -276
17 -434 32 -515 52 -30 7 -84 16 -120 20 -36 3 -100 17 -143 31 -43 13 -90 24
-105 24 -15 1 -45 8 -67 16 -22 9 -71 24 -108 34 -37 10 -78 25 -90 33 -12 8
-38 18 -57 22 -30 7 -104 40 -175 78 -11 6 -38 19 -60 30 -21 11 -51 27 -65
37 -14 9 -52 35 -84 56 -112 74 -327 294 -385 394 -48 82 -91 164 -96 183 -4
12 -17 49 -30 82 -12 33 -26 86 -30 119 -4 32 -14 77 -23 100 -16 38 -17 258
-20 2845 -2 2582 -4 2806 -19 2823 -15 17 -70 18 -1198 18 -1112 0 -1184 -1
-1204 -17z"/>
<path d="M117540 13109 c-25 -4 -150 -8 -279 -8 -220 -1 -316 -7 -486 -31 -38
-5 -149 -17 -245 -25 -96 -9 -195 -22 -220 -30 -25 -7 -96 -19 -159 -25 -63
-7 -131 -18 -151 -25 -21 -7 -73 -18 -116 -25 -44 -6 -106 -20 -139 -30 -33
-11 -87 -24 -120 -29 -33 -5 -87 -19 -119 -30 -33 -12 -69 -21 -80 -21 -12 -1
-39 -8 -61 -16 -22 -9 -76 -26 -120 -39 -44 -13 -118 -38 -165 -55 -47 -18
-110 -41 -140 -51 -30 -11 -73 -28 -95 -38 -22 -10 -65 -31 -96 -45 -31 -14
-62 -26 -70 -26 -8 0 -30 -11 -49 -23 -19 -13 -50 -29 -69 -35 -19 -7 -42 -18
-50 -26 -9 -7 -30 -18 -46 -23 -17 -6 -48 -22 -69 -37 -21 -14 -42 -26 -47
-26 -4 0 -24 -10 -43 -22 -19 -13 -54 -34 -78 -48 -63 -37 -221 -144 -307
-208 -353 -262 -675 -611 -903 -977 -17 -27 -39 -62 -50 -78 -10 -15 -28 -46
-39 -70 -11 -23 -33 -64 -49 -92 -38 -65 -42 -74 -85 -175 -20 -47 -47 -108
-61 -135 -13 -28 -24 -56 -24 -64 0 -7 -9 -30 -19 -50 -19 -37 -48 -118 -80
-226 -9 -33 -23 -70 -30 -83 -7 -13 -18 -53 -25 -90 -8 -37 -23 -101 -34 -142
-34 -128 -71 -292 -78 -350 -3 -30 -14 -102 -25 -160 -10 -58 -23 -163 -29
-235 -6 -71 -15 -168 -22 -215 -6 -47 -13 -137 -16 -200 -7 -161 -14 -5050 -7
-5077 l5 -23 1250 0 c988 0 1251 3 1257 12 4 7 10 1120 13 2473 5 1864 9 2470
18 2500 6 22 16 83 22 135 6 52 19 124 30 160 10 36 23 91 29 122 6 31 19 74
29 95 11 21 23 56 26 77 4 22 16 56 26 75 10 20 33 68 52 106 145 311 363 561
664 767 44 30 94 62 110 70 276 144 432 207 634 258 41 10 93 25 115 33 22 8
70 18 105 22 36 4 102 16 147 26 45 11 133 24 195 29 62 5 154 14 203 20 146
19 224 21 1271 26 831 4 1004 7 1013 18 9 10 12 330 11 1202 l0 1189 -21 18
c-20 16 -81 17 -993 16 -534 -1 -991 -5 -1016 -10z"/>
<path d="M126476 13113 c-4 -4 -173 -11 -374 -16 -202 -4 -407 -11 -457 -16
-49 -5 -169 -16 -265 -25 -96 -9 -209 -21 -250 -26 -41 -6 -157 -22 -257 -35
-100 -13 -187 -26 -193 -30 -5 -3 -56 -13 -112 -21 -57 -8 -150 -25 -208 -38
-58 -14 -127 -29 -155 -35 -77 -15 -173 -40 -255 -66 -41 -14 -93 -27 -115
-31 -22 -4 -66 -17 -97 -30 -32 -13 -68 -24 -80 -24 -13 0 -43 -10 -68 -21
-25 -12 -65 -27 -90 -34 -57 -17 -210 -78 -333 -134 -107 -48 -384 -188 -432
-217 -327 -204 -524 -360 -702 -557 -106 -117 -267 -317 -308 -384 -11 -17
-42 -65 -69 -105 -119 -178 -193 -313 -291 -533 -14 -33 -35 -78 -46 -100 -10
-22 -27 -65 -38 -95 -10 -30 -33 -93 -50 -140 -18 -47 -36 -101 -42 -120 -5
-19 -21 -71 -34 -115 -34 -114 -55 -192 -67 -250 -6 -27 -21 -94 -34 -148 -13
-53 -28 -139 -34 -190 -6 -50 -15 -105 -19 -122 -25 -82 -57 -441 -72 -807
-15 -362 12 -972 56 -1248 9 -52 24 -152 35 -223 11 -70 22 -132 25 -138 4 -5
15 -54 25 -107 17 -92 28 -136 87 -347 40 -142 75 -247 109 -326 13 -31 24
-63 24 -70 0 -8 11 -34 25 -58 14 -23 25 -48 25 -54 0 -24 172 -360 245 -477
133 -215 317 -451 484 -623 131 -135 403 -341 611 -462 28 -16 68 -41 88 -54
20 -13 50 -28 67 -34 16 -6 45 -21 63 -34 19 -13 39 -23 44 -23 4 0 25 -11 46
-24 20 -13 51 -27 69 -31 17 -3 37 -13 43 -21 7 -7 31 -19 54 -25 22 -6 52
-18 66 -27 14 -9 52 -27 85 -38 33 -12 87 -31 119 -43 32 -11 64 -25 71 -31 6
-5 38 -16 71 -23 33 -8 74 -21 91 -30 17 -9 53 -21 79 -27 27 -6 69 -19 94
-29 25 -10 65 -22 90 -26 24 -4 62 -15 85 -25 22 -9 62 -20 88 -24 27 -4 85
-18 129 -32 45 -13 96 -24 114 -24 17 0 61 -9 96 -20 36 -11 107 -26 159 -34
52 -7 148 -23 214 -34 110 -20 234 -37 435 -62 41 -6 163 -17 270 -26 107 -9
240 -20 295 -25 57 -6 942 -12 2039 -15 1595 -4 1941 -3 1947 8 5 7 9 549 9
1204 0 937 -3 1194 -12 1207 -12 16 -135 17 -1763 22 -962 2 -1784 6 -1825 9
-192 11 -480 37 -525 46 -27 6 -98 17 -157 25 -58 8 -141 23 -184 35 -43 11
-91 20 -107 20 -16 0 -61 11 -100 24 -40 13 -90 27 -112 31 -22 4 -60 15 -85
25 -25 10 -72 27 -105 38 -105 34 -129 43 -178 68 -26 13 -52 24 -58 24 -13 0
-152 68 -209 102 -131 78 -226 142 -300 204 -79 65 -185 173 -235 238 -17 22
-39 51 -51 65 -11 14 -38 55 -59 91 -21 36 -46 76 -55 90 -10 14 -21 37 -25
50 -4 14 -14 35 -22 48 -22 36 -73 161 -87 217 -7 28 -23 84 -34 125 -19 69
-42 183 -64 320 -15 95 -10 554 7 650 8 47 20 121 26 165 18 126 89 367 147
499 97 222 243 428 424 602 152 145 258 220 513 361 39 22 157 73 169 73 6 0
30 9 51 21 22 11 67 27 99 35 33 8 66 20 73 26 7 6 46 19 86 29 39 10 97 24
127 33 134 36 282 67 369 76 51 6 101 15 110 20 10 5 75 14 147 19 71 6 172
16 224 21 52 5 124 12 159 16 192 19 759 22 1136 5 143 -6 296 -12 340 -14
147 -6 459 -27 535 -37 41 -5 153 -18 249 -30 96 -11 200 -27 230 -35 31 -7
90 -18 133 -24 42 -6 105 -19 140 -30 34 -10 90 -25 123 -34 83 -21 151 -44
212 -73 28 -13 57 -24 64 -24 14 0 78 -35 155 -86 63 -41 174 -157 199 -209
28 -58 28 -207 0 -253 -54 -89 -220 -153 -445 -171 -80 -7 -164 -17 -187 -22
-25 -5 -883 -9 -2121 -9 -1911 0 -2080 -1 -2086 -16 -4 -9 -6 -552 -6 -1206
-1 -883 2 -1194 11 -1204 10 -12 353 -14 2248 -14 1230 0 2313 5 2406 10 94 5
209 16 257 24 48 8 137 20 199 27 61 6 137 19 168 29 31 9 85 21 121 25 36 4
96 18 134 31 38 13 79 24 90 24 12 1 46 10 76 21 30 11 78 26 107 34 28 7 62
20 75 29 12 9 30 16 38 16 17 0 50 15 250 113 214 105 365 213 539 382 223
217 305 338 477 699 13 28 24 56 24 63 0 8 8 30 19 51 10 20 22 53 25 72 4 19
18 73 31 120 72 252 99 493 98 875 0 398 -25 627 -97 885 -13 47 -28 103 -34
125 -10 37 -36 111 -95 265 -20 54 -81 177 -163 332 -18 33 -109 169 -149 223
-155 208 -409 464 -584 590 -98 70 -214 143 -289 182 -48 25 -99 54 -114 64
-14 11 -32 19 -40 19 -12 0 -88 34 -191 86 -26 13 -55 24 -66 24 -10 0 -39 11
-64 24 -25 14 -63 28 -84 32 -21 3 -51 14 -68 24 -16 10 -56 23 -87 29 -31 5
-75 19 -97 31 -22 11 -52 20 -66 20 -15 0 -59 11 -98 24 -40 14 -101 30 -135
36 -35 6 -92 19 -125 30 -34 10 -87 21 -117 25 -30 3 -89 15 -130 25 -42 11
-115 24 -162 29 -48 6 -104 14 -125 20 -49 13 -152 28 -283 41 -58 6 -127 15
-155 20 -27 6 -169 20 -315 31 -146 12 -308 25 -360 30 -180 17 -1461 45
-1474 32z"/>
<path d="M30078 12329 c-17 -9 -18 -216 -18 -4109 0 -4032 0 -4099 19 -4110
24 -12 2410 -15 2423 -2 9 9 12 8208 2 8223 -8 13 -2404 11 -2426 -2z"/>
<path d="M18990 11416 c-6 -6 -10 -1024 -10 -2725 l0 -2715 36 -70 c20 -39 45
-82 55 -95 11 -13 19 -31 19 -41 0 -9 11 -27 25 -40 14 -13 25 -30 25 -37 0
-16 21 -60 58 -124 24 -42 94 -169 147 -268 11 -21 30 -50 43 -66 12 -15 22
-35 22 -44 0 -9 11 -32 24 -52 13 -19 31 -51 40 -70 9 -19 23 -45 30 -59 8
-14 21 -41 31 -60 9 -19 31 -61 48 -93 18 -31 63 -114 101 -184 37 -70 77
-139 87 -152 11 -13 19 -31 19 -41 0 -9 14 -34 30 -55 17 -21 30 -45 30 -54 0
-9 8 -27 18 -41 19 -27 49 -80 83 -150 12 -25 39 -73 60 -107 21 -35 40 -72
44 -83 3 -11 17 -32 29 -48 13 -15 26 -40 30 -56 4 -16 18 -43 32 -59 13 -16
24 -36 24 -44 0 -9 11 -30 24 -47 13 -17 26 -45 30 -63 4 -17 14 -37 23 -44 8
-7 26 -36 40 -64 13 -27 46 -90 73 -140 27 -49 57 -106 67 -125 10 -19 28 -48
40 -63 13 -16 23 -39 23 -51 0 -12 11 -32 24 -45 12 -12 28 -39 35 -61 6 -22
16 -42 22 -45 5 -4 21 -30 35 -58 13 -29 31 -63 39 -77 7 -14 26 -50 40 -80
15 -30 35 -64 44 -75 10 -11 23 -34 30 -52 7 -17 21 -39 31 -48 11 -10 22 -31
26 -49 3 -17 14 -42 24 -56 9 -14 21 -38 27 -54 11 -37 38 -55 54 -39 8 8 9
29 3 70 -5 32 -7 1498 -4 3339 5 3210 5 3282 24 3303 l19 21 2327 0 c1850 0
2330 3 2337 13 6 6 15 28 22 47 6 19 20 43 30 55 10 11 24 37 30 57 7 20 18
42 26 48 8 6 19 28 26 48 7 20 22 50 35 65 13 16 24 37 24 46 0 10 8 29 19 42
10 13 28 44 40 69 42 85 76 147 98 176 12 17 33 57 48 89 14 33 32 66 39 75 8
8 17 26 21 39 4 12 18 39 31 58 13 20 24 43 24 51 0 8 11 29 24 46 13 17 27
42 31 56 4 14 15 34 25 45 10 11 22 34 26 50 4 17 16 43 28 59 12 17 30 47 41
68 79 151 109 205 126 226 10 14 19 32 19 42 0 9 14 34 30 55 17 21 30 45 30
54 0 10 11 32 25 51 14 19 25 43 25 53 0 11 14 35 30 54 17 18 30 41 30 51 0
9 14 37 30 61 17 24 30 48 30 53 0 6 8 22 18 36 10 15 25 43 32 62 8 19 28 54
44 78 20 28 27 45 20 52 -14 14 -7801 19 -7814 6z"/>
<path d="M50195 4907 c-16 -9 -493 -13 -2239 -14 -1231 -2 -2224 -7 -2229 -12
-13 -13 -10 -872 3 -885 8 -8 638 -13 2158 -18 1181 -4 2328 -10 2549 -13 394
-5 403 -5 423 15 19 19 20 32 20 464 0 400 -2 445 -17 457 -23 19 -638 25
-668 6z"/>
</g>
</svg>
